<svg id="ico_장바구니_fill" xmlns="http://www.w3.org/2000/svg" xmlns:xlink="http://www.w3.org/1999/xlink" width="56" height="56" viewBox="0 0 56 56">
  <defs>
    <clipPath id="clip-path">
      <rect id="사각형_476028" data-name="사각형 476028" width="8" height="7" fill="#fff" stroke="#fff" stroke-width="1"/>
    </clipPath>
  </defs>
  <g id="사각형_465826" data-name="사각형 465826" fill="#d70011" stroke="#d70011" stroke-width="1" opacity="0.5">
    <rect width="56" height="56" rx="28" stroke="none"/>
    <rect x="0.5" y="0.5" width="55" height="55" rx="27.5" fill="none"/>
  </g>
  <g id="그룹_652646" data-name="그룹 652646" transform="translate(16.563 13.438)">
    <g id="그룹_666619" data-name="그룹 666619" transform="translate(-0.563 1.563)">
      <g id="패스_1554931" data-name="패스 1554931" transform="translate(0 5)" fill="none">
        <path d="M3.2,0H20.8L24,21H0Z" stroke="none"/>
        <path d="M 4.918327331542969 1.999998092651367 L 2.327850341796875 19 L 21.67214965820312 19 L 19.08167266845703 1.999998092651367 L 4.918327331542969 1.999998092651367 M 3.200000762939453 -1.9073486328125e-06 L 20.79999923706055 -1.9073486328125e-06 L 24 21 L 0 21 L 3.200000762939453 -1.9073486328125e-06 Z" stroke="none" fill="#fff"/>
      </g>
      <g id="마스크_그룹_634426" data-name="마스크 그룹 634426" transform="translate(8 0)" clip-path="url(#clip-path)">
        <g id="사각형_476027" data-name="사각형 476027" fill="none" stroke="#fff" stroke-width="2">
          <path d="M4,0H4A4,4,0,0,1,8,4V9.6a0,0,0,0,1,0,0H0a0,0,0,0,1,0,0V4A4,4,0,0,1,4,0Z" stroke="none"/>
          <path d="M4,1H4A3,3,0,0,1,7,4V8a.6.6,0,0,1-.6.6H1.6A.6.6,0,0,1,1,8V4A3,3,0,0,1,4,1Z" fill="none"/>
        </g>
      </g>
      <rect id="사각형_476029" data-name="사각형 476029" width="2" height="3.334" rx="1" transform="translate(8 5.266)" fill="#fff"/>
      <rect id="사각형_476030" data-name="사각형 476030" width="2" height="3.334" rx="1" transform="translate(14 5.266)" fill="#fff"/>
    </g>
  </g>
</svg>
